<svg width="24" height="22" viewBox="0 0 24 22" fill="none" xmlns="http://www.w3.org/2000/svg">
<path d="M17.3 2.20493C20.15 2.20493 22.5 4.80493 22.5 7.95493C22.5 11.3549 19.55 13.4549 16.75 15.9549C13.95 18.4549 12.5 19.8049 12 20.1049C11.45 19.7549 9.65 18.1049 7.25 15.9549C4.4 13.4549 1.5 11.3549 1.5 7.95493C1.5 4.80493 3.85 2.20493 6.7 2.20493C8.8 2.20493 9.95 3.20493 10.75 4.35493C11.7 5.65493 11.85 6.30493 12 6.30493C12.15 6.30493 12.3 5.65493 13.25 4.35493C14.05 3.20493 15.2 2.20493 17.3 2.20493ZM17.3 0.704926C15.05 0.704926 13.35 1.60493 12 3.50493C10.65 1.65493 8.95 0.754926 6.7 0.754926C3 0.704926 0 3.95493 0 7.95493C0 11.6049 2.7 13.9549 5.3 16.2049C5.6 16.4549 5.95 16.7549 6.25 17.0549L7.4 18.0549C9.6 20.0049 10.7 21.0049 11.2 21.3049C11.45 21.4549 11.75 21.5549 12 21.5549C12.3 21.5549 12.55 21.4549 12.8 21.3049C13.3 21.0049 14.2 20.2049 16.7 17.9049L17.7 17.0049C18.05 16.7049 18.35 16.4049 18.7 16.1549C21.35 13.9549 24 11.6549 24 7.95493C24 3.95493 21 0.704926 17.3 0.704926Z" fill="#262626"/>
</svg>
