<svg width="24" height="25" viewBox="0 0 24 25" fill="none" xmlns="http://www.w3.org/2000/svg">
<g clip-path="url(#clip0_102_1721)">
<path d="M23.9 2.05494C23.75 1.80494 23.5 1.65494 23.25 1.65494H0.75C0.45 1.70494 0.15 1.90494 0.05 2.15494C-0.05 2.40494 0 2.75494 0.2 3.00494L8.15 10.8049L10.9 22.1049C10.95 22.4049 11.2 22.6049 11.5 22.6549H11.6C11.85 22.6549 12.1 22.5049 12.25 22.3049L23.85 2.80494C24.05 2.60494 24.05 2.30494 23.9 2.05494ZM2.6 3.20494H20.35L9 9.50494L2.6 3.20494ZM11.95 20.0049L9.75 10.8049L21.2 4.45494L11.95 20.0049Z" fill="#262626"/>
</g>
<defs>
<clipPath id="clip0_102_1721">
<rect width="24" height="24" fill="white" transform="translate(0 0.154938)"/>
</clipPath>
</defs>
</svg>
